<svg width="27" height="27" fill="none" xmlns="http://www.w3.org/2000/svg"><path d="M26.234 8.126a9.537 9.537 0 0 0-.612-3.236 6.73 6.73 0 0 0-3.845-3.844 9.644 9.644 0 0 0-3.191-.613C17.18.37 16.736.353 13.17.353c-3.565 0-4.022 0-5.416.08-1.09.022-2.17.23-3.19.613A6.727 6.727 0 0 0 .718 4.89a9.57 9.57 0 0 0-.612 3.19C.044 9.486.025 9.932.025 13.497c0 3.566 0 4.021.082 5.417a9.63 9.63 0 0 0 .612 3.193 6.732 6.732 0 0 0 3.846 3.843 9.614 9.614 0 0 0 3.19.657c1.406.063 1.851.082 5.417.082 3.565 0 4.022 0 5.417-.082a9.623 9.623 0 0 0 3.191-.612 6.738 6.738 0 0 0 3.845-3.844c.384-1.022.59-2.1.611-3.193.063-1.405.082-1.85.082-5.417-.003-3.565-.003-4.018-.084-5.415ZM13.162 20.24a6.748 6.748 0 0 1-6.75-6.75 6.748 6.748 0 0 1 11.523-4.773 6.75 6.75 0 0 1-4.773 11.523ZM20.18 8.064a1.572 1.572 0 0 1-.603-3.027 1.573 1.573 0 1 1 .603 3.027Z" fill="#777"/></svg>