<svg width="77" height="101" fill="none" xmlns="http://www.w3.org/2000/svg"><g filter="url(#a)" clip-path="url(#b)"><path d="M4.396 74.351C2.256 74.374.32 72.799.16 70.666-1.452 49.146 8.79.214 37.42 0c35.554-.268 39.774 59.964 38.566 72.914-.03.36-.902 15.067-5.42 15.067-3.241 0-5.435-6.352-6.551-10.656a4.633 4.633 0 0 0-4.526-3.47l-55.087.496h-.007Z" fill="#B1D3DD"/></g><g filter="url(#c)" clip-path="url(#d)"><path d="M70.758 101a4.25 4.25 0 1 0 0-8.501 4.25 4.25 0 0 0 0 8.501Z" fill="#B1D3DD"/></g><defs><clipPath id="b"><path fill="#fff" d="M0 0h76.163v87.981H0z"/></clipPath><clipPath id="d"><path fill="#fff" transform="translate(66.508 92.499)" d="M0 0h8.501v8.501H0z"/></clipPath><filter id="a" x="-.002" y="-.001" width="78.665" height="90.482" filterUnits="userSpaceOnUse" color-interpolation-filters="sRGB"><feFlood flood-opacity="0" result="BackgroundImageFix"/><feBlend in="SourceGraphic" in2="BackgroundImageFix" result="shape"/><feColorMatrix in="SourceAlpha" values="0 0 0 0 0 0 0 0 0 0 0 0 0 0 0 0 0 0 127 0" result="hardAlpha"/><feOffset dx="2.5" dy="2.5"/><feGaussianBlur stdDeviation="2.5"/><feComposite in2="hardAlpha" operator="arithmetic" k2="-1" k3="1"/><feColorMatrix values="0 0 0 0 0.14902 0 0 0 0 0.27451 0 0 0 0 0.305882 0 0 0 0.65 0"/><feBlend in2="shape" result="effect1_innerShadow_1_49"/></filter><filter id="c" x="66.508" y="92.499" width="10.001" height="10.001" filterUnits="userSpaceOnUse" color-interpolation-filters="sRGB"><feFlood flood-opacity="0" result="BackgroundImageFix"/><feBlend in="SourceGraphic" in2="BackgroundImageFix" result="shape"/><feColorMatrix in="SourceAlpha" values="0 0 0 0 0 0 0 0 0 0 0 0 0 0 0 0 0 0 127 0" result="hardAlpha"/><feOffset dx="1.5" dy="1.5"/><feGaussianBlur stdDeviation="1.5"/><feComposite in2="hardAlpha" operator="arithmetic" k2="-1" k3="1"/><feColorMatrix values="0 0 0 0 0.027451 0 0 0 0 0.27451 0 0 0 0 0.337255 0 0 0 0.6 0"/><feBlend in2="shape" result="effect1_innerShadow_1_49"/></filter></defs></svg>