<svg width="35" height="26" fill="none" xmlns="http://www.w3.org/2000/svg"><g clip-path="url(#a)" fill="#444"><path d="M29.179 11.489a.439.439 0 0 0-.312.024.388.388 0 0 0-.202.222.354.354 0 0 0 .027.289c.05.09.136.157.24.187 3.197.944 4.624 2.351 4.624 4.567 0 1.97-1.94 3.499-3.096 4.236a.39.39 0 0 0-.13.136.357.357 0 0 0-.048.176v2.898a6.544 6.544 0 0 1-2.558-1.633.418.418 0 0 0-.175-.107.445.445 0 0 0-.208-.014c-.233.042-.471.1-.713.16-.417.105-.848.212-1.256.212-2.102 0-3.573-.418-5.077-1.442a.435.435 0 0 0-.573.08.359.359 0 0 0 .087.53c1.66 1.13 3.27 1.59 5.563 1.59.516 0 1-.12 1.469-.237.146-.037.29-.073.434-.104 1.53 1.496 3.26 1.836 3.335 1.85a.437.437 0 0 0 .34-.078.384.384 0 0 0 .111-.131.354.354 0 0 0 .04-.162v-3.214c2.113-1.396 3.273-3.076 3.273-4.746 0-2.563-1.65-4.244-5.195-5.29Z"/><path d="M27.009 11.092C27.009 5.258 21.265.858 13.65.858 5.997.858.002 5.355.002 11.094c0 3.44 2.628 5.906 4.91 7.398v5.03a.36.36 0 0 0 .05.181c.034.056.08.103.138.137a.432.432 0 0 0 .39.028c.119-.049 2.912-1.225 5.301-3.645 1.036.178 2.207.35 3.27.35 7.744 0 12.948-3.81 12.948-9.48Zm-12.95 8.722c-1.072 0-2.29-.19-3.341-.376a.447.447 0 0 0-.209.014.419.419 0 0 0-.174.107c-1.678 1.752-3.65 2.866-4.604 3.346v-4.61a.357.357 0 0 0-.048-.177.39.39 0 0 0-.13-.136C3.394 16.606.82 14.295.82 11.094c0-5.315 5.636-9.478 12.83-9.478 7.15 0 12.54 4.074 12.54 9.476 0 5.218-4.875 8.722-12.13 8.722Z"/><path d="M13.505 9.576c-.903 0-1.637.68-1.637 1.516s.734 1.516 1.637 1.516 1.637-.68 1.637-1.516-.734-1.516-1.637-1.516Zm0 2.274a.85.85 0 0 1-.555-.233.73.73 0 0 1-.227-.525.73.73 0 0 1 .227-.524.85.85 0 0 1 .555-.234.85.85 0 0 1 .555.234.73.73 0 0 1 .228.524.73.73 0 0 1-.228.525.849.849 0 0 1-.555.233Zm5.729-2.274c-.903 0-1.637.68-1.637 1.516s.734 1.516 1.637 1.516c.902 0 1.636-.68 1.636-1.516s-.734-1.516-1.636-1.516Zm0 2.274a.85.85 0 0 1-.556-.233.73.73 0 0 1-.227-.525.73.73 0 0 1 .227-.524.85.85 0 0 1 .556-.234.85.85 0 0 1 .555.234.73.73 0 0 1 .227.524.73.73 0 0 1-.227.525.85.85 0 0 1-.555.233ZM7.776 9.648c-.902 0-1.636.68-1.636 1.516 0 .837.734 1.517 1.636 1.517.903 0 1.637-.68 1.637-1.517 0-.836-.734-1.516-1.637-1.516Zm0 2.274a.85.85 0 0 1-.555-.233.73.73 0 0 1-.227-.525.73.73 0 0 1 .227-.524.85.85 0 0 1 .555-.234.85.85 0 0 1 .556.234.73.73 0 0 1 .227.524.73.73 0 0 1-.227.525.85.85 0 0 1-.556.233Z"/></g><defs><clipPath id="a"><path fill="#fff" transform="translate(0 .858)" d="M0 0h34.376v24.259H0z"/></clipPath></defs></svg>