<svg xmlns="http://www.w3.org/2000/svg" viewBox="0 0 680.28 518.14"><path d="M55.14 0h20L61 14.14H41L55.14 0zm82 0h20L143 14.14h-20L137.14 0zm82 0h20L225 14.14h-20L219.14 0zm82 0h20L307 14.14h-20L301.14 0zm82 0h20L389 14.14h-20L383.14 0zm82 0h20L471 14.14h-20L465.14 0zm82 0h20L553 14.14h-20L547.14 0zm82 0h20L635 14.14h-20L629.14 0zM0 56.37 13.91 42l.32 20L.32 76.37l-.32-20zm0 84L13.91 126l.32 20L.32 160.37l-.32-20zm0 84L13.91 210l.32 20L.32 244.37l-.32-20zm0 84L13.91 294l.32 20L.32 328.37l-.32-20zm0 84L13.91 378l.32 20L.32 412.37l-.32-20zm0 84L13.91 462l.32 20L.32 496.37l-.32-20zm666-21L679.91 441l.37 22.76-13.91 14.37-.37-22.76ZM55.14 504h20L61 518.14H41L55.14 504zm82 0h20L143 518.14h-20L137.14 504zm82 0h20L225 518.14h-20L219.14 504zm82 0h20L307 518.14h-20L301.14 504zm82 0h20L389 518.14h-20L383.14 504zm82 0h20L471 518.14h-20L465.14 504zm82 0h20L553 518.14h-20L547.14 504zm82 0h20L635 518.14h-20L629.14 504zm51-125L666 393.14v-20L680.14 359v20Zm0-82L666 311.14v-20L680.14 277v20Zm0-82L666 229.14v-20L680.14 195v20zm0-82L666 147.14v-20L680.14 113v20zm0-82L666 65.14v-20L680.14 31v20z" style="fill:#debec3"/></svg>