<svg width="18" height="25" fill="none" xmlns="http://www.w3.org/2000/svg"><g clip-path="url(#a)"><path d="M8.76.721C4.55.721.003 3.783.003 8.73c0 2.44 1.062 4.494 3.102 6.05a.368.368 0 0 0 .073.065c1.514 1.5 1.59 1.786 1.6 2.447.006.26.003.338 0 .38l-.002.152c-.012.33-.03.88.716 1.089l6.444 1.296a.436.436 0 0 0 .3-.049.385.385 0 0 0 .112-.098.35.35 0 0 0 .066-.273.348.348 0 0 0-.057-.132.38.38 0 0 0-.108-.102.42.42 0 0 0-.142-.057l-6.414-1.29c-.123-.034-.134-.036-.123-.362l.003-.139s.008-.057.001-.426c-.015-.924-.235-1.37-1.838-2.955a.392.392 0 0 0-.11-.086C1.749 12.78.798 10.927.798 8.729c0-4.497 4.133-7.28 7.963-7.28 3.914 0 7.962 2.723 7.962 7.28 0 2.896-1.535 4.492-2.801 5.497a.387.387 0 0 0-.117.08c-1.622 1.604-1.842 2.05-1.857 2.974v.1c-.003.055-.012.086-.011.098l-.093-.014-3.34-.718a.434.434 0 0 0-.301.045.387.387 0 0 0-.114.097.333.333 0 0 0-.015.404.41.41 0 0 0 .247.163l3.3.708c.044.014.44.132.775-.083.145-.094.315-.278.345-.63l.003-.034.001-.072v-.054c.01-.656.085-.942 1.597-2.443.007-.005.015-.01.021-.016 2.124-1.631 3.157-3.628 3.157-6.103C17.52 3.717 13.066.72 8.76.72Zm3.186 21.475a.42.42 0 0 0 .248-.08.36.36 0 0 0 .14-.204.332.332 0 0 0-.052-.274.38.38 0 0 0-.107-.103.416.416 0 0 0-.142-.058l-6.37-1.32a.43.43 0 0 0-.295.05.366.366 0 0 0-.172.226.338.338 0 0 0 .05.27.39.39 0 0 0 .241.163l6.37 1.32c.03.007.059.01.089.01Zm-5.885.04a.433.433 0 0 0-.309.04.386.386 0 0 0-.116.1.349.349 0 0 0-.069.277c.01.048.03.094.06.135.029.04.067.076.112.103a.419.419 0 0 0 .147.054l5.176 1.062a.435.435 0 0 0 .308-.041.387.387 0 0 0 .117-.099.348.348 0 0 0 .068-.278.346.346 0 0 0-.059-.135.384.384 0 0 0-.112-.103.422.422 0 0 0-.148-.054l-5.175-1.061Z" fill="#444"/></g><defs><clipPath id="a"><path fill="#fff" transform="translate(0 .721)" d="M0 0h17.522v23.295H0z"/></clipPath></defs></svg>