<svg width="191" height="53" fill="none" xmlns="http://www.w3.org/2000/svg"><g filter="url(#a)"><path d="M77.835 41.322v-6.569c-.382.255-.805.382-1.441.382s-.933-.34-.933-1.102v-13.01c0-5.636-2.415-9.578-8.772-9.578-2.33 0-4.83 1.018-6.865 3.687-1.398-2.796-3.941-3.687-7.204-3.687-4.874 0-9.366 3.306-9.366 8.815 0 2.924 1.356 5.848 3.56 7.586l5.763-4.365c-.974-.763-1.61-1.865-1.61-3.009 0-.805.636-1.399 1.44-1.399 1.018 0 1.527 1.102 1.527 2.331V42h8.136V21.828c0-1.737 1.314-3.009 3.009-3.009 1.44 0 2.246.933 2.246 2.713v13.645c0 4.958 1.907 7.204 6.569 7.204 1.695 0 2.966-.381 3.94-1.059Zm21.707-5.213c-.423 0-.847-.211-.847-.932V24.286h-7.29v1.526c-1.27-1.441-2.754-1.95-4.449-1.95-5.297 0-8.221 4.365-8.221 9.281 0 5.043 2.924 9.28 8.221 9.28 1.992 0 3.687-.72 5.085-2.796.848 1.737 2.458 2.797 4.747 2.797 1.44 0 2.67-.424 3.899-1.356v-5.34c-.382.254-.678.381-1.145.381Zm-10.679.297c-1.737 0-2.924-1.229-2.924-3.263s1.187-3.263 2.924-3.263c1.102 0 1.992.466 2.543 1.398v3.73c-.551.932-1.441 1.398-2.543 1.398Zm21.956-12.544c-5.128 0-9.281 4.196-9.281 9.323 0 5.043 4.153 9.239 9.281 9.239 5.127 0 9.28-4.196 9.28-9.239 0-5.127-4.153-9.323-9.28-9.323Zm0 12.46c-1.823 0-3.009-1.4-3.009-3.137 0-1.229.551-2.373 1.568-2.924.127 1.992 1.864 3.56 3.898 3.56.255 0 .509-.042.763-.085-.254 1.483-1.61 2.585-3.22 2.585Zm36.044 2.711-4.111-6.398c-1.738 1.568-3.899 1.991-7.12 1.991h-6.568c2.204-.847 3.772-3.22 3.772-6.484v-6.23c0-1.948 1.017-2.796 2.457-2.796 1.314 0 2.204.932 2.204 2.416 0 1.27-.89 2.203-1.78 3.05l5.552 4.45c2.415-1.78 4.28-4.746 4.28-8.475 0-5.679-4.238-9.111-9.917-9.111-6.822 0-10.933 4.534-10.933 10.51v7.204c0 2.924-.636 4.619-2.924 5.34V42h14.451c5.212 0 7.713-.381 10.637-2.967Zm20.84-2.924c-.424 0-.848-.211-.848-.932V24.286h-7.289v1.526c-1.271-1.441-2.754-1.95-4.449-1.95-5.298 0-8.222 4.365-8.222 9.281 0 5.043 2.924 9.28 8.222 9.28 1.991 0 3.687-.72 5.085-2.796.848 1.737 2.458 2.797 4.746 2.797 1.441 0 2.67-.424 3.899-1.356v-5.34c-.381.254-.678.381-1.144.381Zm-10.679.297c-1.738 0-2.924-1.229-2.924-3.263s1.186-3.263 2.924-3.263c1.102 0 1.991.466 2.542 1.398v3.73c-.551.932-1.44 1.398-2.542 1.398Zm26.574-12.544c-2.5 0-5.127 1.738-5.127 4.831 0 2.543 2.161 4.45 4.534 4.45-.085 1.483-1.017 2.755-2.67 2.755-1.864 0-2.712-1.484-2.712-2.882V11.912h-7.289V33.1c0 5.127 4.195 9.323 9.366 9.323 6.314 0 10.128-4.916 10.128-10.468 0-3.983-2.077-8.094-6.23-8.094Z" fill="#B1D3DD"/></g><g filter="url(#b)" clip-path="url(#c)"><path d="M2.028 40.6c-.988.01-1.88-.716-1.954-1.7C-.67 28.973 4.055 6.402 17.261 6.303c16.4-.123 18.347 27.66 17.79 33.634-.014.165-.416 6.95-2.5 6.95-1.495 0-2.507-2.93-3.022-4.916a2.137 2.137 0 0 0-2.088-1.6l-25.41.228h-.003Z" fill="#B1D3DD"/></g><g filter="url(#d)" clip-path="url(#e)"><path d="M32.64 52.892a1.96 1.96 0 1 0 0-3.921 1.96 1.96 0 0 0 0 3.92Z" fill="#B1D3DD"/></g><defs><filter id="a" x="43.254" y="11.445" width="147.678" height="32.082" filterUnits="userSpaceOnUse" color-interpolation-filters="sRGB"><feFlood flood-opacity="0" result="BackgroundImageFix"/><feBlend in="SourceGraphic" in2="BackgroundImageFix" result="shape"/><feColorMatrix in="SourceAlpha" values="0 0 0 0 0 0 0 0 0 0 0 0 0 0 0 0 0 0 127 0" result="hardAlpha"/><feOffset dx="1.104" dy="1.104"/><feGaussianBlur stdDeviation="1.104"/><feComposite in2="hardAlpha" operator="arithmetic" k2="-1" k3="1"/><feColorMatrix values="0 0 0 0 0.150816 0 0 0 0 0.273108 0 0 0 0 0.304167 0 0 0 0.65 0"/><feBlend in2="shape" result="effect1_innerShadow_1_1019"/></filter><filter id="b" x="-.001" y="6.303" width="36.286" height="41.737" filterUnits="userSpaceOnUse" color-interpolation-filters="sRGB"><feFlood flood-opacity="0" result="BackgroundImageFix"/><feBlend in="SourceGraphic" in2="BackgroundImageFix" result="shape"/><feColorMatrix in="SourceAlpha" values="0 0 0 0 0 0 0 0 0 0 0 0 0 0 0 0 0 0 127 0" result="hardAlpha"/><feOffset dx="1.153" dy="1.153"/><feGaussianBlur stdDeviation="1.153"/><feComposite in2="hardAlpha" operator="arithmetic" k2="-1" k3="1"/><feColorMatrix values="0 0 0 0 0.14902 0 0 0 0 0.27451 0 0 0 0 0.305882 0 0 0 0.65 0"/><feBlend in2="shape" result="effect1_innerShadow_1_1019"/></filter><filter id="d" x="30.679" y="48.971" width="4.613" height="4.613" filterUnits="userSpaceOnUse" color-interpolation-filters="sRGB"><feFlood flood-opacity="0" result="BackgroundImageFix"/><feBlend in="SourceGraphic" in2="BackgroundImageFix" result="shape"/><feColorMatrix in="SourceAlpha" values="0 0 0 0 0 0 0 0 0 0 0 0 0 0 0 0 0 0 127 0" result="hardAlpha"/><feOffset dx=".692" dy=".692"/><feGaussianBlur stdDeviation=".692"/><feComposite in2="hardAlpha" operator="arithmetic" k2="-1" k3="1"/><feColorMatrix values="0 0 0 0 0.027451 0 0 0 0 0.27451 0 0 0 0 0.337255 0 0 0 0.6 0"/><feBlend in2="shape" result="effect1_innerShadow_1_1019"/></filter><clipPath id="c"><path fill="#fff" transform="translate(0 6.303)" d="M0 0h35.132v40.584H0z"/></clipPath><clipPath id="e"><path fill="#fff" transform="translate(30.679 48.97)" d="M0 0h3.921v3.921H0z"/></clipPath></defs></svg>