<svg id="_レイヤー_2" xmlns="http://www.w3.org/2000/svg" viewBox="0 0 26.17 26.59"><defs><style>.cls-2{fill:none;stroke:#555;stroke-miterlimit:10;stroke-width:1.26px}</style></defs><g id="_レイヤー_1-2"><path class="cls-2" d="M18.83.63H7.34C3.63.63.63 3.69.63 7.45v11.68c0 3.77 3.01 6.83 6.71 6.83h11.49c3.71 0 6.71-3.06 6.71-6.83V7.45c0-3.77-3.01-6.83-6.71-6.83Z"/><path class="cls-2" d="M13.08 19.41c3.32 0 6.01-2.74 6.01-6.12s-2.69-6.12-6.01-6.12-6.01 2.74-6.01 6.12 2.69 6.12 6.01 6.12Z"/><path d="M20.39 7.18c.71 0 1.29-.59 1.29-1.31s-.58-1.31-1.29-1.31-1.29.59-1.29 1.31.58 1.31 1.29 1.31Z" style="fill:#555"/></g></svg>