<svg width="31" height="25" fill="none" xmlns="http://www.w3.org/2000/svg"><path d="M27.895 6.396c.014.27.014.54.014.795a17.353 17.353 0 0 1-.72 4.91 17.125 17.125 0 0 1-16.8 12.626c-3.35.003-6.629-.96-9.443-2.777a12.338 12.338 0 0 0 9.112-2.554 6.166 6.166 0 0 1-5.75-4.263c.383.065.77.1 1.157.105a5.898 5.898 0 0 0 1.635-.225 6.133 6.133 0 0 1-4.923-5.57 2.424 2.424 0 0 1-.03-.466v-.074a6.084 6.084 0 0 0 2.793.765 6.135 6.135 0 0 1-2.735-5.12A6.239 6.239 0 0 1 3.03 1.44a17.474 17.474 0 0 0 12.703 6.442 6.16 6.16 0 0 1 10.493-5.615 12.326 12.326 0 0 0 3.92-1.501 7.268 7.268 0 0 1-2.254 5.63h.002Z" fill="#777"/></svg>