<svg width="30" height="30" fill="none" xmlns="http://www.w3.org/2000/svg"><path d="M15.033 0C6.744 0 0 6.742 0 15.032s6.744 15.032 15.033 15.032c8.288 0 15.033-6.743 15.033-15.032C30.066 6.742 23.32 0 15.033 0Zm0 29.063c-7.736 0-14.03-6.295-14.03-14.031 0-7.736 6.294-14.03 14.03-14.03s14.03 6.294 14.03 14.03-6.294 14.03-14.03 14.03Z" fill="#555"/><path d="M23.277 10.387a3.49 3.49 0 0 0 .256-.602.501.501 0 0 0-.732-.584c-.48.285-1 .498-1.543.63a3.58 3.58 0 0 0-5.977 2.8 8.27 8.27 0 0 1-5.377-2.98.502.502 0 0 0-.822.066 3.575 3.575 0 0 0-.061 3.489.59.59 0 0 0-.201.073.535.535 0 0 0-.248.45c0 1.065.474 2.042 1.237 2.705l-.033.033a.5.5 0 0 0-.101.486 3.579 3.579 0 0 0 2.047 2.217 5.75 5.75 0 0 1-3.193.543.51.51 0 0 0-.53.33.502.502 0 0 0 .201.59 9.226 9.226 0 0 0 4.987 1.462c5.794 0 9.257-4.706 9.257-9.256l-.001-.154a6.674 6.674 0 0 0 1.444-1.556.501.501 0 0 0-.61-.742Zm-1.636 1.646a.501.501 0 0 0-.208.432c.006.124.009.25.009.373 0 4.058-3.088 8.255-8.254 8.255a8.212 8.212 0 0 1-2.707-.458 6.631 6.631 0 0 0 2.855-1.303.502.502 0 0 0-.3-.895 2.58 2.58 0 0 1-2.057-1.09c.237-.015.47-.055.696-.116a.5.5 0 0 0-.034-.975A2.57 2.57 0 0 1 9.69 14.47c.25.063.505.1.761.108a.5.5 0 0 0 .294-.917 2.574 2.574 0 0 1-1.071-2.76 9.266 9.266 0 0 0 6.158 2.786.51.51 0 0 0 .41-.18c.1-.12.138-.28.102-.434a2.578 2.578 0 0 1 4.39-2.35.501.501 0 0 0 .463.15c.155-.032.307-.067.458-.109a2.303 2.303 0 0 1-.212.142.501.501 0 0 0 .317.926l.17-.021c-.093.077-.19.151-.289.222Z" fill="#555"/></svg>