<svg width="30" height="30" fill="none" xmlns="http://www.w3.org/2000/svg"><g clip-path="url(#a)" fill="#777"><path d="M29.912 8.842a10.883 10.883 0 0 0-.698-3.694A7.684 7.684 0 0 0 24.825.76a11.01 11.01 0 0 0-3.643-.7C19.578-.012 19.07-.032 15-.032s-4.591 0-6.183.092a11.01 11.01 0 0 0-3.642.7A7.678 7.678 0 0 0 .787 5.148 10.923 10.923 0 0 0 .088 8.79c-.071 1.605-.093 2.113-.093 6.183s0 4.59.093 6.184c.025 1.246.26 2.476.699 3.645a7.683 7.683 0 0 0 4.39 4.386c1.162.456 2.394.71 3.641.75 1.606.072 2.114.094 6.184.094s4.591 0 6.183-.094a10.984 10.984 0 0 0 3.643-.698 7.69 7.69 0 0 0 4.389-4.388c.438-1.167.673-2.397.698-3.645.072-1.604.093-2.112.093-6.184-.003-4.07-.003-4.586-.096-6.181ZM14.99 22.67a7.703 7.703 0 0 1-7.705-7.705 7.703 7.703 0 0 1 13.153-5.448A7.705 7.705 0 0 1 14.99 22.67Zm8.012-13.898a1.795 1.795 0 0 1-1.27-3.067 1.796 1.796 0 1 1 1.27 3.067Z"/><path d="M14.99 19.97a5.005 5.005 0 1 0 0-10.01 5.005 5.005 0 0 0 0 10.01Z"/></g><defs><clipPath id="a"><path fill="#fff" d="M0 0h30v30H0z"/></clipPath></defs></svg>