<svg width="24" height="25" fill="none" xmlns="http://www.w3.org/2000/svg"><g clip-path="url(#a)" fill="#444"><path d="M11.925.498C5.35.498 0 5.834 0 12.395c0 6.56 5.35 11.897 11.925 11.897 6.575 0 11.925-5.337 11.925-11.897C23.85 5.834 18.5.498 11.925.498Zm0 23.001C5.788 23.5.795 18.518.795 12.395c0-6.123 4.993-11.105 11.13-11.105 6.137 0 11.129 4.982 11.129 11.105s-4.992 11.104-11.13 11.104Z"/><path d="M7.835 12.766c.82 0 1.487-.666 1.487-1.484a1.487 1.487 0 0 0-2.974 0c0 .818.667 1.484 1.487 1.484Zm0-2.226a.746.746 0 0 1 .688.458.741.741 0 0 1-.542 1.013.746.746 0 0 1-.89-.73c0-.409.334-.741.744-.741Zm8.18 2.226c.82 0 1.488-.666 1.488-1.484a1.487 1.487 0 0 0-2.975 0c0 .818.667 1.484 1.487 1.484Zm0-2.226a.746.746 0 0 1 .731.887.742.742 0 0 1-1.015.542.744.744 0 0 1-.46-.687c0-.41.335-.742.744-.742ZM17 16.902a6.69 6.69 0 0 1-4.899 2.145 6.69 6.69 0 0 1-4.95-2.201.398.398 0 0 0-.59.532 7.475 7.475 0 0 0 5.54 2.462 7.494 7.494 0 0 0 5.483-2.4.396.396 0 1 0-.584-.538Z"/></g><defs><clipPath id="a"><path fill="#fff" transform="translate(0 .498)" d="M0 0h23.798v23.744H0z"/></clipPath></defs></svg>