<svg id="_レイヤー_1" xmlns="http://www.w3.org/2000/svg" viewBox="0 0 680.14 518.14"><defs><style>.cls-1,.cls-2{fill:#b1d3dd}.cls-2{fill-rule:evenodd}</style></defs><path class="cls-1" d="M96.14 0h20L102 14.14H82L96.14 0zm82 0h20L184 14.14h-20L178.14 0zm82 0h20L266 14.14h-20L260.14 0zm82 0h20L348 14.14h-20L342.14 0zm82 0h20L430 14.14h-20L424.14 0zm82 0h20L512 14.14h-20L506.14 0zm82 0h20L594 14.14h-20L588.14 0z"/><path class="cls-2" d="M34.14 0h-20l-.23.23V0L6.9 7.24 0 14.14h.22l-.22.23.32 20L14.23 20l-.09-5.86H20L34.14 0Z"/><path class="cls-1" d="M0 98.37 13.91 84l.32 20L.32 118.37l-.32-20zm0 84L13.91 168l.32 20L.32 202.37l-.32-20zm0 84L13.91 252l.32 20L.32 286.37l-.32-20zm0 84L13.91 336l.32 20L.32 370.37l-.32-20zM14.14 504h20L20 518.14H0L14.14 504zm82 0h20L102 518.14H82L96.14 504zm82 0h20L184 518.14h-20L178.14 504zm82 0h20L266 518.14h-20L260.14 504zm82 0h20L348 518.14h-20L342.14 504zm82 0h20L430 518.14h-20L424.14 504zm82 0h20L512 518.14h-20L506.14 504zm82 0h20L594 518.14h-20L588.14 504zm92-166L666 352.14v-20L680.14 318v20zm0 82.68L666 434.82v-20.68L680.14 400v20.68zM14.14 440 0 454.14v-20L14.14 420v20zm666-184L666 270.14v-20L680.14 236v20zm0-82L666 188.14v-20L680.14 154v20zm0-82L666 106.14v-20L680.14 72v20zM670 0l-14 14h10v10l14-14V0h-10Z"/><path class="cls-2" d="m666 518.04 14.14-14.14v-17.51L666 500.53V504h-3l-14 14h17v.04Z"/></svg>