<svg width="115" height="32" fill="none" xmlns="http://www.w3.org/2000/svg"><g filter="url(#a)"><path d="M46.53 8.07V1.503c-.974-.678-2.245-1.06-3.94-1.06-4.662 0-6.569 2.247-6.569 7.205v13.645c0 1.738-.55 2.713-2.161 2.713-1.61 0-2.246-.975-2.246-2.712V.909h-8.137v20.384c0 1.737-.55 2.712-2.16 2.712-1.611 0-2.247-.975-2.247-2.712V11.08c0-6.4-2.712-10.637-9.45-10.637C4.746.443.254 3.748.254 9.257c0 2.924 1.356 5.848 3.56 7.586l5.763-4.365c-.974-.763-1.61-1.865-1.61-3.009 0-.805.636-1.398 1.44-1.398 1.018 0 1.527 1.101 1.527 2.33v11.485c0 5.763 3.093 9.577 9.238 9.577 3.305 0 5.933-1.356 7.374-3.136 1.44 1.78 4.068 3.136 7.373 3.136 6.145 0 9.239-3.814 9.239-9.577V8.79c0-.763.254-1.102.932-1.102.636 0 1.06.127 1.44.382Zm8.832 4.79c-5.128 0-9.281 4.195-9.281 9.323 0 5.042 4.153 9.238 9.28 9.238 5.129 0 9.282-4.196 9.282-9.238 0-5.128-4.154-9.324-9.281-9.324Zm0 12.458c-1.823 0-3.01-1.398-3.01-3.136 0-1.229.552-2.373 1.569-2.924.127 1.992 1.865 3.56 3.899 3.56.254 0 .508-.042.763-.085-.255 1.484-1.61 2.585-3.221 2.585ZM78.067 12.86c-1.568 0-3.136.89-4.238 2.84v-2.416h-7.29v17.714h7.29v-8.645c0-.975.254-1.865 1.017-2.712.763 1.186 1.78 1.864 3.475 1.864 1.907 0 3.772-1.652 3.772-4.364 0-2.628-1.738-4.28-4.026-4.28Zm24.122 12.248c-.932 0-1.61-.424-2.585-1.441-.974-1.017-2.076-1.653-3.517-1.823 4.195-.55 5.424-4.873 5.424-8.56h-7.204c0 2.5-1.314 5.806-3.22 5.806V.909h-7.29v30.088h7.29V24.98c1.355.34 2.627 1.568 3.983 3.602 1.187 1.78 2.67 2.84 4.704 2.84 1.441 0 2.797-.636 3.602-1.356v-5.34c-.381.254-.72.381-1.187.381Zm7.376 6.271c3.39 0 5.424-2.16 5.424-5.72 0-2.84-1.907-4.832-1.907-6.23 0-.763.467-1.568 1.526-1.78l-4.195-4.789c-3.052 1.356-4.45 3.39-4.45 6.103 0 2.712 1.695 4.534 1.695 5.466 0 .509-.381.806-.932.806-.382 0-.933-.128-1.526-.594v5.89c1.187.594 3.009.848 4.365.848Z" fill="#B1D3DD"/></g><defs><filter id="a" x=".254" y=".442" width="115.839" height="32.124" filterUnits="userSpaceOnUse" color-interpolation-filters="sRGB"><feFlood flood-opacity="0" result="BackgroundImageFix"/><feBlend in="SourceGraphic" in2="BackgroundImageFix" result="shape"/><feColorMatrix in="SourceAlpha" values="0 0 0 0 0 0 0 0 0 0 0 0 0 0 0 0 0 0 127 0" result="hardAlpha"/><feOffset dx="1.104" dy="1.104"/><feGaussianBlur stdDeviation="1.104"/><feComposite in2="hardAlpha" operator="arithmetic" k2="-1" k3="1"/><feColorMatrix values="0 0 0 0 0.150816 0 0 0 0 0.273108 0 0 0 0 0.304167 0 0 0 0.65 0"/><feBlend in2="shape" result="effect1_innerShadow_1_1623"/></filter></defs></svg>