<svg width="33" height="24" fill="none" xmlns="http://www.w3.org/2000/svg"><g clip-path="url(#a)" fill="#144750"><path d="M31.77 7.5a.375.375 0 0 0-.375.375v15a.375.375 0 0 1-.375.375H1.77a.375.375 0 0 1-.375-.375v-15a.375.375 0 0 0-.75 0v15c0 .62.505 1.125 1.125 1.125h29.25c.62 0 1.125-.505 1.125-1.125v-15a.375.375 0 0 0-.375-.375ZM31.02 0H1.77C1.15 0 .645.505.645 1.125v4.5A.375.375 0 0 0 1.02 6h30.75a.375.375 0 0 0 .375-.375v-4.5C32.145.505 31.64 0 31.02 0Zm.375 5.25h-30V1.125A.375.375 0 0 1 1.77.75h29.25a.375.375 0 0 1 .375.375V5.25Z"/><path d="M13.77 21a.375.375 0 0 0 .375-.375v-12a.375.375 0 0 0-.375-.375H4.02a.375.375 0 0 0-.375.375v12A.375.375 0 0 0 4.02 21h9.75ZM4.395 9h9v11.25h-9V9Zm13.125 2.25h11.25a.375.375 0 1 0 0-.75H17.52a.375.375 0 0 0 0 .75Zm0 3.75h11.25a.375.375 0 1 0 0-.75H17.52a.375.375 0 0 0 0 .75Zm0 3.75h11.25a.375.375 0 1 0 0-.75H17.52a.375.375 0 0 0 0 .75Zm-13.875-15a.75.75 0 1 0 0-1.5.75.75 0 0 0 0 1.5Zm3 0a.75.75 0 1 0 0-1.5.75.75 0 0 0 0 1.5Zm3 0a.75.75 0 1 0 0-1.5.75.75 0 0 0 0 1.5Z"/></g><defs><clipPath id="a"><path fill="#fff" transform="translate(.645)" d="M0 0h31.504v24H0z"/></clipPath></defs></svg>