<svg width="63" height="84" fill="none" xmlns="http://www.w3.org/2000/svg"><circle cx="58.5" cy="80.5" r="3.25" stroke="#157788" stroke-width=".5"/><path d="M3.596 62.35h.009l45.077-.416c1.86-.02 3.484 1.264 3.949 3.091.455 1.795 1.127 4.002 2.01 5.756.44.877.928 1.627 1.457 2.155.529.527 1.079.813 1.652.813.77 0 1.445-.642 2.026-1.79.572-1.127 1.004-2.649 1.324-4.198.596-2.884.796-5.8.831-6.311l.005-.073v-.002c.492-5.384-.121-20.653-4.488-34.54-2.183-6.942-5.297-13.518-9.664-18.341-4.36-4.817-9.966-7.885-17.158-7.83l-.002-.25.002.25C19.08.754 11.185 10.885 6.331 23.375 1.485 35.845-.275 50.539.382 59.5l3.214 2.85Zm0 0C1.964 62.367.503 61.14.382 59.5l3.214 2.85Z" stroke="#157788" stroke-width=".5"/><path d="M45.984 47.68v-.608c-.704.672-1.568.736-2.08.736a2.561 2.561 0 0 1-2.592-2.592V30.528c0-3.232-2.56-5.6-5.696-5.6-3.168 0-6.176 2.08-7.2 5.184-.32-3.136-2.592-5.184-5.632-5.184-3.104 0-5.44 2.4-5.44 5.6 0 1.696 1.088 3.52 2.528 4.416l.288-.448c-1.344-.864-2.304-2.432-2.304-3.968 0-2.912 2.112-5.12 4.928-5.12 3.136 0 5.152 2.24 5.152 5.376V48h.512V32.512c0-3.872 3.328-7.104 7.168-7.104 2.88 0 5.184 2.176 5.184 5.12v14.688c0 1.792 1.28 3.072 3.104 3.072.608 0 1.408-.16 2.08-.608Z" fill="#157788"/></svg>