<svg width="63" height="74" viewBox="0 0 63 74" fill="none" xmlns="http://www.w3.org/2000/svg">
<path d="M3.59608 62.3496L3.59882 62.3496L3.60401 62.3496H3.60508L48.6824 61.9341C50.5412 61.9136 52.1656 63.1976 52.6309 65.0251L52.631 65.0253C53.0863 66.8196 53.7582 69.0269 54.6405 70.7807C55.0819 71.6581 55.5693 72.4084 56.0983 72.9361C56.6268 73.4635 57.1766 73.7495 57.75 73.7495C58.5195 73.7495 59.1946 73.1068 59.7763 71.9597C60.3484 70.8315 60.7796 69.3101 61.1 67.7607C61.6961 64.8772 61.8961 61.9605 61.9311 61.4495C61.9337 61.412 61.9354 61.3875 61.9363 61.3769L61.9365 61.3749C62.4278 55.9908 61.8145 40.7224 57.4482 26.8357C55.2653 19.8935 52.1507 13.3169 47.7844 8.49365C43.424 3.67682 37.8175 0.609491 30.6263 0.664798L30.6244 0.414806L30.6263 0.664798C19.0804 0.753024 11.185 10.8849 6.33108 23.3747C1.48504 35.8443 -0.274849 50.5381 0.382369 59.4995L3.59608 62.3496ZM3.59608 62.3496C1.96419 62.3675 0.503218 61.1399 0.382375 59.4996L3.59608 62.3496Z" stroke="#157788" stroke-width="0.5"/>
<path d="M45.984 47.68V47.072C45.28 47.744 44.416 47.808 43.904 47.808C42.432 47.808 41.312 46.656 41.312 45.216V30.528C41.312 27.296 38.752 24.928 35.616 24.928C32.448 24.928 29.44 27.008 28.416 30.112C28.096 26.976 25.824 24.928 22.784 24.928C19.68 24.928 17.344 27.328 17.344 30.528C17.344 32.224 18.432 34.048 19.872 34.944L20.16 34.496C18.816 33.632 17.856 32.064 17.856 30.528C17.856 27.616 19.968 25.408 22.784 25.408C25.92 25.408 27.936 27.648 27.936 30.784V48H28.448V32.512C28.448 28.64 31.776 25.408 35.616 25.408C38.496 25.408 40.8 27.584 40.8 30.528V45.216C40.8 47.008 42.08 48.288 43.904 48.288C44.512 48.288 45.312 48.128 45.984 47.68Z" fill="#157788"/>
</svg>
