<svg width="30" height="30" viewBox="0 0 30 30" fill="none" xmlns="http://www.w3.org/2000/svg">
<path d="M15.0328 0C6.74438 0 0 6.7425 0 15.0319C0 23.3212 6.74438 30.0637 15.0328 30.0637C23.3213 30.0637 30.0656 23.3212 30.0656 15.0319C30.0656 6.7425 23.3213 0 15.0328 0ZM15.0328 29.0625C7.29656 29.0625 1.00312 22.7681 1.00312 15.0319C1.00312 7.29562 7.29656 1.00125 15.0328 1.00125C22.7691 1.00125 29.0625 7.29562 29.0625 15.0319C29.0625 22.7681 22.7691 29.0625 15.0328 29.0625Z" fill="#555555"/>
<path d="M23.2771 10.3875C23.3811 10.195 23.4668 9.99319 23.533 9.78469C23.5637 9.68797 23.5643 9.58423 23.5348 9.48715C23.5053 9.39008 23.447 9.30424 23.3677 9.24097C23.2884 9.1777 23.1918 9.13997 23.0906 9.13277C22.9894 9.12556 22.8883 9.14922 22.8009 9.20063C22.3205 9.48601 21.8005 9.69863 21.2577 9.83156C20.5989 9.23698 19.7433 8.90735 18.8559 8.90625C18.3737 8.90662 17.8966 9.00434 17.4532 9.19356C17.0097 9.38277 16.609 9.65958 16.2751 10.0074C15.9412 10.3552 15.681 10.7669 15.51 11.2177C15.3391 11.6685 15.2609 12.1492 15.2802 12.6309C13.1718 12.3655 11.2465 11.2986 9.90368 9.65156C9.85223 9.58916 9.78648 9.54011 9.71201 9.50856C9.63755 9.47701 9.55656 9.46389 9.47595 9.47034C9.39533 9.47678 9.31746 9.50258 9.24895 9.54556C9.18044 9.58853 9.12331 9.64741 9.08243 9.71719C8.77495 10.2449 8.60782 10.8427 8.59699 11.4533C8.58616 12.064 8.73198 12.6673 9.02055 13.2056C8.94978 13.2176 8.88179 13.2424 8.81993 13.2788C8.74413 13.3271 8.68172 13.3937 8.63846 13.4725C8.59521 13.5514 8.5725 13.6398 8.57243 13.7297C8.57243 14.7938 9.04586 15.7706 9.80899 16.4344L9.77618 16.4672C9.71856 16.5324 9.67893 16.6114 9.66117 16.6966C9.64342 16.7817 9.64816 16.87 9.67493 16.9528C9.83406 17.4492 10.0998 17.9049 10.4534 18.2879C10.8071 18.6709 11.2402 18.9719 11.7224 19.17C10.732 19.6531 9.6237 19.8416 8.5293 19.7128C8.41681 19.7013 8.30369 19.7275 8.20766 19.7872C8.11164 19.847 8.03814 19.9368 7.99868 20.0428C7.96078 20.1496 7.96007 20.266 7.99666 20.3732C8.03325 20.4804 8.10499 20.5721 8.20024 20.6334C9.68806 21.5883 11.4189 22.0956 13.1868 22.095C18.9806 22.095 22.4437 17.3888 22.4437 12.8391L22.4427 12.6853C23.0042 12.247 23.492 11.7216 23.8874 11.1291C23.9473 11.0395 23.9768 10.933 23.9714 10.8254C23.9661 10.7178 23.9262 10.6148 23.8577 10.5316C23.7893 10.4484 23.6958 10.3894 23.5913 10.3635C23.4867 10.3375 23.3765 10.346 23.2771 10.3875ZM21.6412 12.0328C21.5731 12.0817 21.5185 12.1469 21.4821 12.2224C21.4457 12.2979 21.4289 12.3813 21.4331 12.465C21.4387 12.5888 21.4415 12.7144 21.4415 12.8381C21.4415 16.8956 18.3543 21.0928 13.1877 21.0928C12.2663 21.0932 11.3513 20.9386 10.4812 20.6353C11.5233 20.4356 12.5023 19.9887 13.3359 19.3322C13.417 19.2682 13.4764 19.1807 13.506 19.0817C13.5355 18.9827 13.5337 18.877 13.5009 18.779C13.4681 18.681 13.4058 18.5955 13.3225 18.5343C13.2393 18.4731 13.1392 18.439 13.0359 18.4369C12.6316 18.4292 12.2349 18.3265 11.8776 18.1373C11.5203 17.9481 11.2125 17.6775 10.979 17.3475C11.2162 17.3316 11.4487 17.2922 11.6746 17.2313C11.784 17.202 11.8802 17.1365 11.9475 17.0456C12.0149 16.9546 12.0494 16.8435 12.0455 16.7303C12.0416 16.6172 11.9995 16.5087 11.926 16.4226C11.8525 16.3365 11.752 16.2779 11.6409 16.2563C11.1843 16.1634 10.7616 15.9481 10.418 15.6336C10.0743 15.319 9.82267 14.9169 9.68993 14.4703C9.9393 14.5331 10.1952 14.5697 10.4512 14.5781C10.6715 14.5772 10.8759 14.4422 10.9443 14.2303C11.0127 14.0184 10.9321 13.785 10.7456 13.6613C10.3044 13.3674 9.96479 12.9444 9.773 12.4503C9.58121 11.9562 9.54664 11.4148 9.67399 10.9003C11.3025 12.5712 13.5014 13.5662 15.8315 13.6866C15.9965 13.6875 16.1409 13.6284 16.2412 13.5075C16.3415 13.3866 16.3799 13.2263 16.3443 13.0725C16.2161 12.5203 16.2734 11.9413 16.5075 11.4249C16.7415 10.9086 17.1392 10.4839 17.639 10.2164C18.1388 9.94884 18.7128 9.85352 19.2722 9.94513C19.8317 10.0367 20.3453 10.3102 20.7337 10.7231C20.7919 10.7852 20.8649 10.8315 20.946 10.8576C21.027 10.8836 21.1133 10.8887 21.1968 10.8722C21.3515 10.8413 21.5043 10.8056 21.6552 10.7644C21.5872 10.8153 21.5165 10.8626 21.4434 10.9059C21.3461 10.9655 21.2721 11.0564 21.2335 11.1636C21.1948 11.2709 21.1939 11.3881 21.2308 11.496C21.2677 11.6039 21.3402 11.6959 21.4365 11.757C21.5327 11.8182 21.6469 11.8447 21.7602 11.8322L21.9309 11.8106C21.8369 11.888 21.7403 11.9621 21.6412 12.0328Z" fill="#555555"/>
</svg>
