<svg width="30" height="30" viewBox="0 0 30 30" fill="none" xmlns="http://www.w3.org/2000/svg">
<g clip-path="url(#clip0_119_403)">
<path d="M29.9118 8.8416C29.895 7.5793 29.6587 6.32955 29.2135 5.14826C28.8274 4.15185 28.2377 3.24693 27.4821 2.49131C26.7265 1.7357 25.8215 1.14601 24.8251 0.759929C23.659 0.32219 22.4271 0.0854972 21.1818 0.0599285C19.5784 -0.0117382 19.0701 -0.0317383 15.0001 -0.0317383C10.9301 -0.0317383 10.4085 -0.0317382 8.81678 0.0599285C7.57205 0.0856852 6.3407 0.322375 5.17512 0.759929C4.17855 1.14574 3.27349 1.73534 2.51784 2.49098C1.76219 3.24663 1.1726 4.15169 0.786784 5.14826C0.348169 6.31348 0.111989 7.54511 0.0884505 8.78993C0.0167838 10.3949 -0.00488281 10.9033 -0.00488281 14.9733C-0.00488281 19.0433 -0.00488282 19.5633 0.0884505 21.1566C0.113451 22.4033 0.34845 23.6333 0.786784 24.8016C1.17325 25.7979 1.76328 26.7026 2.51918 27.4579C3.27508 28.2132 4.18022 28.8026 5.17678 29.1883C6.33917 29.6436 7.57074 29.8972 8.81845 29.9383C10.4235 30.0099 10.9318 30.0316 15.0018 30.0316C19.0718 30.0316 19.5935 30.0316 21.1851 29.9383C22.4304 29.9137 23.6624 29.6776 24.8284 29.2399C25.8246 28.8534 26.7293 28.2636 27.4849 27.508C28.2404 26.7524 28.8303 25.8477 29.2168 24.8516C29.6551 23.6849 29.8901 22.4549 29.9151 21.2066C29.9868 19.6033 30.0084 19.0949 30.0084 15.0233C30.0051 10.9533 30.0051 10.4366 29.9118 8.8416V8.8416ZM14.9901 22.6699C10.7335 22.6699 7.28512 19.2216 7.28512 14.9649C7.28512 10.7083 10.7335 7.25993 14.9901 7.25993C17.0336 7.25993 18.9934 8.0717 20.4384 9.51667C21.8833 10.9616 22.6951 12.9214 22.6951 14.9649C22.6951 17.0084 21.8833 18.9682 20.4384 20.4132C18.9934 21.8582 17.0336 22.6699 14.9901 22.6699V22.6699ZM23.0018 8.77159C22.7658 8.77181 22.532 8.72549 22.314 8.63528C22.0959 8.54507 21.8977 8.41273 21.7309 8.24585C21.564 8.07897 21.4316 7.88082 21.3414 7.66274C21.2512 7.44466 21.2049 7.21093 21.2051 6.97493C21.2051 6.7391 21.2516 6.50557 21.3418 6.28769C21.4321 6.06981 21.5643 5.87184 21.7311 5.70508C21.8979 5.53832 22.0958 5.40604 22.3137 5.31579C22.5316 5.22555 22.7651 5.1791 23.001 5.1791C23.2368 5.1791 23.4703 5.22555 23.6882 5.31579C23.9061 5.40604 24.104 5.53832 24.2708 5.70508C24.4376 5.87184 24.5698 6.06981 24.6601 6.28769C24.7503 6.50557 24.7968 6.7391 24.7968 6.97493C24.7968 7.96826 23.9935 8.77159 23.0018 8.77159Z" fill="#777777"/>
<path d="M14.9901 19.97C17.7543 19.97 19.9951 17.7291 19.9951 14.965C19.9951 12.2008 17.7543 9.95996 14.9901 9.95996C12.2259 9.95996 9.98511 12.2008 9.98511 14.965C9.98511 17.7291 12.2259 19.97 14.9901 19.97Z" fill="#777777"/>
</g>
<defs>
<clipPath id="clip0_119_403">
<rect width="30" height="30" fill="white"/>
</clipPath>
</defs>
</svg>
