<svg width="24" height="25" viewBox="0 0 24 25" fill="none" xmlns="http://www.w3.org/2000/svg">
<g clip-path="url(#clip0_1_1080)">
<path d="M11.9249 0.497559C5.35002 0.497559 0 5.83396 0 12.3947C0 18.9554 5.35002 24.2918 11.9249 24.2918C18.4997 24.2918 23.8498 18.9554 23.8498 12.3947C23.8498 5.83396 18.4997 0.497559 11.9249 0.497559ZM11.9249 23.4993C5.78805 23.4993 0.795736 18.5176 0.795736 12.3947C0.795736 6.27174 5.78805 1.29001 11.9249 1.29001C18.0617 1.29001 23.054 6.27174 23.054 12.3947C23.054 18.5176 18.0617 23.4993 11.9249 23.4993Z" fill="#444444"/>
<path d="M7.83501 12.7658C8.65529 12.7658 9.32237 12.1003 9.32237 11.2818C9.32237 10.4634 8.65529 9.79785 7.83501 9.79785C7.01474 9.79785 6.34766 10.4634 6.34766 11.2818C6.34766 12.1003 7.01474 12.7658 7.83501 12.7658ZM7.83501 10.5398C7.98231 10.5397 8.12634 10.5832 8.24887 10.6647C8.3714 10.7463 8.46693 10.8623 8.52337 10.998C8.57981 11.1337 8.59461 11.2832 8.56591 11.4273C8.53721 11.5714 8.4663 11.7039 8.36214 11.8078C8.25799 11.9117 8.12528 11.9824 7.9808 12.0111C7.83633 12.0397 7.68659 12.0249 7.55053 11.9686C7.41448 11.9123 7.29822 11.817 7.21648 11.6948C7.13474 11.5725 7.09119 11.4288 7.09133 11.2818C7.09133 10.8723 7.42525 10.5398 7.83501 10.5398ZM16.0155 12.7658C16.8358 12.7658 17.5028 12.1003 17.5028 11.2818C17.5028 10.4634 16.8358 9.79785 16.0155 9.79785C15.1952 9.79785 14.5281 10.4634 14.5281 11.2818C14.5281 12.1003 15.1952 12.7658 16.0155 12.7658ZM16.0155 10.5398C16.1628 10.5397 16.3068 10.5832 16.4293 10.6647C16.5519 10.7463 16.6474 10.8623 16.7038 10.998C16.7603 11.1337 16.7751 11.2832 16.7464 11.4273C16.7177 11.5714 16.6468 11.7039 16.5426 11.8078C16.4384 11.9117 16.3057 11.9824 16.1613 12.0111C16.0168 12.0397 15.8671 12.0249 15.731 11.9686C15.5949 11.9123 15.4787 11.817 15.3969 11.6948C15.3152 11.5725 15.2716 11.4288 15.2718 11.2818C15.2718 10.8723 15.6057 10.5398 16.0155 10.5398ZM16.9994 16.9024C16.3746 17.5771 15.617 18.1159 14.774 18.485C13.931 18.8541 13.0206 19.0456 12.1 19.0475C11.1665 19.0462 10.2437 18.8497 9.39108 18.4705C8.53847 18.0913 7.77504 17.5379 7.15009 16.846C7.07881 16.7701 6.98051 16.7251 6.87632 16.7208C6.77214 16.7164 6.67041 16.753 6.59302 16.8228C6.51563 16.8925 6.46877 16.9897 6.46252 17.0936C6.45627 17.1974 6.49113 17.2996 6.5596 17.378C7.25946 18.1518 8.11407 18.7707 9.06835 19.1947C10.0226 19.6188 11.0554 19.8386 12.1 19.84C14.1734 19.84 16.1724 18.9652 17.5831 17.4404C17.6546 17.3631 17.6925 17.2607 17.6883 17.1557C17.6841 17.0506 17.6383 16.9515 17.5608 16.8802C17.4834 16.8088 17.3808 16.7711 17.2755 16.7753C17.1702 16.7794 17.0709 16.8252 16.9994 16.9024Z" fill="#444444"/>
</g>
<defs>
<clipPath id="clip0_1_1080">
<rect width="23.7977" height="23.7437" fill="white" transform="translate(0 0.497559)"/>
</clipPath>
</defs>
</svg>
