<svg width="92" height="92" viewBox="0 0 92 92" fill="none" xmlns="http://www.w3.org/2000/svg">
<path fill-rule="evenodd" clip-rule="evenodd" d="M6.14645 5.59891C5.62128 2.62047 8.51726 0.190408 11.3592 1.22481L25.2046 6.26419C31.392 3.08066 38.4096 1.28364 45.8469 1.28364C54.2213 1.28364 62.0635 3.562 68.7875 7.53267L83.0397 2.3453C85.8817 1.31091 88.7777 3.74094 88.2525 6.71937L85.2984 23.473C85.2583 23.7002 85.2006 23.9176 85.1272 24.1245C88.8825 30.7131 91.0278 38.3383 91.0278 46.4646C91.0278 71.4173 70.7997 91.6455 45.8469 91.6455C20.8942 91.6455 0.666016 71.4173 0.666016 46.4646C0.666016 36.8475 3.67074 27.9323 8.7926 20.6064L6.14645 5.59891Z" fill="#B0CFD5" fill-opacity="0.3"/>
</svg>
