<svg width="27" height="27" viewBox="0 0 27 27" fill="none" xmlns="http://www.w3.org/2000/svg">
<path d="M26.2336 8.12568C26.2188 7.01986 26.0118 5.92504 25.6218 4.89018C25.2836 4.01728 24.767 3.22453 24.105 2.56259C23.4431 1.90064 22.6503 1.38405 21.7774 1.04583C20.7559 0.66235 19.6767 0.454998 18.5857 0.432599C17.1812 0.369816 16.7358 0.352295 13.1704 0.352295C9.60488 0.352295 9.14788 0.352295 7.75352 0.432599C6.66308 0.455162 5.58437 0.662512 4.56327 1.04583C3.69024 1.38382 2.89737 1.90032 2.23539 2.5623C1.57342 3.22427 1.05691 4.01714 0.718922 4.89018C0.334678 5.91096 0.127775 6.98991 0.107154 8.08042C0.0443715 9.48646 0.0253906 9.93178 0.0253906 13.4973C0.0253906 17.0627 0.0253906 17.5183 0.107154 18.9141C0.129055 20.0062 0.334924 21.0838 0.718922 22.1073C1.05748 22.98 1.57437 23.7726 2.23657 24.4343C2.89876 25.096 3.69171 25.6123 4.56473 25.9502C5.58303 26.3491 6.66193 26.5712 7.75498 26.6072C9.16102 26.67 9.60634 26.689 13.1718 26.689C16.7373 26.689 17.1943 26.689 18.5887 26.6072C19.6796 26.5857 20.7588 26.3788 21.7804 25.9954C22.653 25.6568 23.4456 25.1401 24.1075 24.4782C24.7694 23.8163 25.2861 23.0237 25.6247 22.1511C26.0087 21.129 26.2146 20.0515 26.2365 18.9579C26.2993 17.5533 26.3183 17.108 26.3183 13.5411C26.3153 9.97559 26.3153 9.52297 26.2336 8.12568ZM13.1616 20.2398C9.43259 20.2398 6.41172 17.219 6.41172 13.49C6.41172 9.76096 9.43259 6.74008 13.1616 6.74008C14.9518 6.74008 16.6686 7.45123 17.9345 8.71708C19.2003 9.98293 19.9115 11.6998 19.9115 13.49C19.9115 15.2801 19.2003 16.997 17.9345 18.2629C16.6686 19.5287 14.9518 20.2398 13.1616 20.2398ZM20.1801 8.06436C19.9734 8.06455 19.7686 8.02397 19.5776 7.94494C19.3865 7.86591 19.213 7.74998 19.0668 7.60379C18.9206 7.4576 18.8046 7.28401 18.7256 7.09296C18.6466 6.90192 18.606 6.69716 18.6062 6.49041C18.6062 6.28381 18.6469 6.07924 18.7259 5.88837C18.805 5.69749 18.9209 5.52406 19.067 5.37798C19.2131 5.23189 19.3865 5.11601 19.5774 5.03694C19.7682 4.95788 19.9728 4.91719 20.1794 4.91719C20.386 4.91719 20.5906 4.95788 20.7815 5.03694C20.9723 5.11601 21.1458 5.23189 21.2918 5.37798C21.4379 5.52406 21.5538 5.69749 21.6329 5.88837C21.7119 6.07924 21.7526 6.28381 21.7526 6.49041C21.7526 7.36061 21.0489 8.06436 20.1801 8.06436Z" fill="#777777"/>
</svg>
