<?xml version="1.0" encoding="UTF-8"?><svg id="_レイヤー_1" xmlns="http://www.w3.org/2000/svg" viewBox="0 0 680.28 518.14"><defs><style>.cls-1{fill:#debec3;}</style></defs><polygon class="cls-1" points="55.14 0 75.14 0 61 14.14 41 14.14 55.14 0"/><polygon class="cls-1" points="137.14 0 157.14 0 143 14.14 123 14.14 137.14 0"/><polygon class="cls-1" points="219.14 0 239.14 0 225 14.14 205 14.14 219.14 0"/><polygon class="cls-1" points="301.14 0 321.14 0 307 14.14 287 14.14 301.14 0"/><polygon class="cls-1" points="383.14 0 403.14 0 389 14.14 369 14.14 383.14 0"/><polygon class="cls-1" points="465.14 0 485.14 0 471 14.14 451 14.14 465.14 0"/><polygon class="cls-1" points="547.14 0 567.14 0 553 14.14 533 14.14 547.14 0"/><polygon class="cls-1" points="629.14 0 649.14 0 635 14.14 615 14.14 629.14 0"/><polygon class="cls-1" points="0 56.37 13.91 42 14.23 62 .32 76.37 0 56.37"/><polygon class="cls-1" points="0 140.37 13.91 126 14.23 146 .32 160.37 0 140.37"/><polygon class="cls-1" points="0 224.37 13.91 210 14.23 230 .32 244.37 0 224.37"/><polygon class="cls-1" points="0 308.37 13.91 294 14.23 314 .32 328.37 0 308.37"/><polygon class="cls-1" points="0 392.37 13.91 378 14.23 398 .32 412.37 0 392.37"/><polygon class="cls-1" points="0 476.37 13.91 462 14.23 482 .32 496.37 0 476.37"/><path class="cls-1" d="M666,455.37l13.91-14.37,.37,22.76-13.91,14.37-.37-22.76Z"/><polygon class="cls-1" points="55.14 504 75.14 504 61 518.14 41 518.14 55.14 504"/><polygon class="cls-1" points="137.14 504 157.14 504 143 518.14 123 518.14 137.14 504"/><polygon class="cls-1" points="219.14 504 239.14 504 225 518.14 205 518.14 219.14 504"/><polygon class="cls-1" points="301.14 504 321.14 504 307 518.14 287 518.14 301.14 504"/><polygon class="cls-1" points="383.14 504 403.14 504 389 518.14 369 518.14 383.14 504"/><polygon class="cls-1" points="465.14 504 485.14 504 471 518.14 451 518.14 465.14 504"/><polygon class="cls-1" points="547.14 504 567.14 504 553 518.14 533 518.14 547.14 504"/><polygon class="cls-1" points="629.14 504 649.14 504 635 518.14 615 518.14 629.14 504"/><path class="cls-1" d="M680.14,379l-14.14,14.14v-20l14.14-14.14v20Z"/><path class="cls-1" d="M680.14,297l-14.14,14.14v-20l14.14-14.14v20Z"/><polygon class="cls-1" points="680.14 215 666 229.14 666 209.14 680.14 195 680.14 215"/><polygon class="cls-1" points="680.14 133 666 147.14 666 127.14 680.14 113 680.14 133"/><polygon class="cls-1" points="680.14 51 666 65.14 666 45.14 680.14 31 680.14 51"/></svg>