<svg width="191" height="53" viewBox="0 0 191 53" fill="none" xmlns="http://www.w3.org/2000/svg">
<g filter="url(#filter0_i_1_1019)">
<path d="M77.8346 41.322V34.7534C77.4532 35.0076 77.0295 35.1348 76.3938 35.1348C75.7581 35.1348 75.4615 34.7958 75.4615 34.033V21.0229C75.4615 15.3867 73.0459 11.4455 66.6893 11.4455C64.3585 11.4455 61.8582 12.4626 59.824 15.1324C58.4256 12.3355 55.8829 11.4455 52.6198 11.4455C47.7463 11.4455 43.2543 14.751 43.2543 20.2601C43.2543 23.1842 44.6104 26.1083 46.814 27.8458L52.5774 23.4809C51.6027 22.7181 50.967 21.6162 50.967 20.472C50.967 19.6668 51.6027 19.0735 52.4079 19.0735C53.425 19.0735 53.9335 20.1754 53.9335 21.4043V42H62.0701V21.8281C62.0701 20.0906 63.3838 18.8193 65.0789 18.8193C66.5197 18.8193 67.3249 19.7516 67.3249 21.5315V35.1772C67.3249 40.1354 69.2319 42.3814 73.8935 42.3814C75.5886 42.3814 76.86 42 77.8346 41.322ZM99.5424 36.1095C99.1186 36.1095 98.6948 35.8976 98.6948 35.1772V24.286H91.4058V25.8116C90.1345 24.3708 88.6513 23.8623 86.9562 23.8623C81.6589 23.8623 78.7348 28.2272 78.7348 33.143C78.7348 38.186 81.6589 42.4238 86.9562 42.4238C88.9479 42.4238 90.643 41.7034 92.0415 39.6268C92.8891 41.3643 94.4994 42.4238 96.7878 42.4238C98.2287 42.4238 99.4576 42 100.687 41.0677V35.7281C100.305 35.9823 100.009 36.1095 99.5424 36.1095ZM88.8632 36.4061C87.1257 36.4061 85.9391 35.1772 85.9391 33.143C85.9391 31.1089 87.1257 29.8799 88.8632 29.8799C89.965 29.8799 90.8549 30.3461 91.4058 31.2784V35.0076C90.8549 35.94 89.965 36.4061 88.8632 36.4061ZM110.819 23.8623C105.691 23.8623 101.538 28.0577 101.538 33.1854C101.538 38.2284 105.691 42.4238 110.819 42.4238C115.946 42.4238 120.099 38.2284 120.099 33.1854C120.099 28.0577 115.946 23.8623 110.819 23.8623ZM110.819 36.3214C108.996 36.3214 107.81 34.9229 107.81 33.1854C107.81 31.9564 108.361 30.8122 109.378 30.2613C109.505 32.2531 111.242 33.8211 113.276 33.8211C113.531 33.8211 113.785 33.7787 114.039 33.7363C113.785 35.2195 112.429 36.3214 110.819 36.3214ZM146.863 39.0335L142.752 32.6345C141.014 34.2025 138.853 34.6262 135.632 34.6262H129.064C131.268 33.7787 132.836 31.4055 132.836 28.1424V21.9129C132.836 19.9635 133.853 19.1159 135.293 19.1159C136.607 19.1159 137.497 20.0482 137.497 21.5315C137.497 22.8028 136.607 23.7351 135.717 24.5827L141.269 29.0324C143.684 27.2525 145.549 24.286 145.549 20.5568C145.549 14.8781 141.311 11.4455 135.632 11.4455C128.81 11.4455 124.699 15.98 124.699 21.9552V29.1595C124.699 32.0836 124.063 33.7787 121.775 34.4991V42H136.226C141.438 42 143.939 41.6186 146.863 39.0335ZM167.703 36.1095C167.279 36.1095 166.855 35.8976 166.855 35.1772V24.286H159.566V25.8116C158.295 24.3708 156.812 23.8623 155.117 23.8623C149.819 23.8623 146.895 28.2272 146.895 33.143C146.895 38.186 149.819 42.4238 155.117 42.4238C157.108 42.4238 158.804 41.7034 160.202 39.6268C161.05 41.3643 162.66 42.4238 164.948 42.4238C166.389 42.4238 167.618 42 168.847 41.0677V35.7281C168.466 35.9823 168.169 36.1095 167.703 36.1095ZM157.024 36.4061C155.286 36.4061 154.1 35.1772 154.1 33.143C154.1 31.1089 155.286 29.8799 157.024 29.8799C158.126 29.8799 159.015 30.3461 159.566 31.2784V35.0076C159.015 35.94 158.126 36.4061 157.024 36.4061ZM183.598 23.8623C181.098 23.8623 178.471 25.5997 178.471 28.6933C178.471 31.236 180.632 33.143 183.005 33.143C182.92 34.6262 181.988 35.8976 180.335 35.8976C178.471 35.8976 177.623 34.4144 177.623 33.0159V11.9117H170.334V33.1006C170.334 38.2284 174.529 42.4238 179.7 42.4238C186.014 42.4238 189.828 37.5079 189.828 31.9564C189.828 27.9729 187.751 23.8623 183.598 23.8623Z" fill="#B1D3DD"/>
</g>
<g clip-path="url(#clip0_1_1019)">
<g filter="url(#filter1_i_1_1019)">
<path d="M2.02756 40.5994C1.04021 40.61 0.148067 39.8836 0.0740162 38.8998C-0.670021 28.9734 4.05515 6.40188 17.2609 6.30314C33.6615 6.17973 35.608 33.963 35.0508 39.9365C35.0367 40.1022 34.6347 46.8867 32.5507 46.8867C31.0556 46.8867 30.0436 43.9564 29.5287 41.9711C29.2819 41.0226 28.4215 40.3596 27.4412 40.3702L2.03108 40.5994H2.02756Z" fill="#B1D3DD"/>
</g>
</g>
<g clip-path="url(#clip1_1_1019)">
<g filter="url(#filter2_i_1_1019)">
<path d="M32.6393 52.8919C33.7221 52.8919 34.5999 52.0141 34.5999 50.9313C34.5999 49.8485 33.7221 48.9707 32.6393 48.9707C31.5565 48.9707 30.6787 49.8485 30.6787 50.9313C30.6787 52.0141 31.5565 52.8919 32.6393 52.8919Z" fill="#B1D3DD"/>
</g>
</g>
<defs>
<filter id="filter0_i_1_1019" x="43.2539" y="11.4453" width="147.678" height="32.0821" filterUnits="userSpaceOnUse" color-interpolation-filters="sRGB">
<feFlood flood-opacity="0" result="BackgroundImageFix"/>
<feBlend mode="normal" in="SourceGraphic" in2="BackgroundImageFix" result="shape"/>
<feColorMatrix in="SourceAlpha" type="matrix" values="0 0 0 0 0 0 0 0 0 0 0 0 0 0 0 0 0 0 127 0" result="hardAlpha"/>
<feOffset dx="1.10359" dy="1.10359"/>
<feGaussianBlur stdDeviation="1.10359"/>
<feComposite in2="hardAlpha" operator="arithmetic" k2="-1" k3="1"/>
<feColorMatrix type="matrix" values="0 0 0 0 0.150816 0 0 0 0 0.273108 0 0 0 0 0.304167 0 0 0 0.65 0"/>
<feBlend mode="normal" in2="shape" result="effect1_innerShadow_1_1019"/>
</filter>
<filter id="filter1_i_1_1019" x="-0.000976562" y="6.30273" width="36.286" height="41.7372" filterUnits="userSpaceOnUse" color-interpolation-filters="sRGB">
<feFlood flood-opacity="0" result="BackgroundImageFix"/>
<feBlend mode="normal" in="SourceGraphic" in2="BackgroundImageFix" result="shape"/>
<feColorMatrix in="SourceAlpha" type="matrix" values="0 0 0 0 0 0 0 0 0 0 0 0 0 0 0 0 0 0 127 0" result="hardAlpha"/>
<feOffset dx="1.15319" dy="1.15319"/>
<feGaussianBlur stdDeviation="1.15319"/>
<feComposite in2="hardAlpha" operator="arithmetic" k2="-1" k3="1"/>
<feColorMatrix type="matrix" values="0 0 0 0 0.14902 0 0 0 0 0.27451 0 0 0 0 0.305882 0 0 0 0.65 0"/>
<feBlend mode="normal" in2="shape" result="effect1_innerShadow_1_1019"/>
</filter>
<filter id="filter2_i_1_1019" x="30.6787" y="48.9707" width="4.61281" height="4.61281" filterUnits="userSpaceOnUse" color-interpolation-filters="sRGB">
<feFlood flood-opacity="0" result="BackgroundImageFix"/>
<feBlend mode="normal" in="SourceGraphic" in2="BackgroundImageFix" result="shape"/>
<feColorMatrix in="SourceAlpha" type="matrix" values="0 0 0 0 0 0 0 0 0 0 0 0 0 0 0 0 0 0 127 0" result="hardAlpha"/>
<feOffset dx="0.691912" dy="0.691912"/>
<feGaussianBlur stdDeviation="0.691912"/>
<feComposite in2="hardAlpha" operator="arithmetic" k2="-1" k3="1"/>
<feColorMatrix type="matrix" values="0 0 0 0 0.027451 0 0 0 0 0.27451 0 0 0 0 0.337255 0 0 0 0.6 0"/>
<feBlend mode="normal" in2="shape" result="effect1_innerShadow_1_1019"/>
</filter>
<clipPath id="clip0_1_1019">
<rect width="35.132" height="40.5836" fill="white" transform="translate(0 6.30273)"/>
</clipPath>
<clipPath id="clip1_1_1019">
<rect width="3.92118" height="3.92118" fill="white" transform="translate(30.6787 48.9707)"/>
</clipPath>
</defs>
</svg>
