<svg width="35" height="26" viewBox="0 0 35 26" fill="none" xmlns="http://www.w3.org/2000/svg">
<g clip-path="url(#clip0_1_1051)">
<path d="M29.179 11.4885C29.0756 11.4581 28.9634 11.4669 28.867 11.5131C28.7706 11.5593 28.698 11.6391 28.6651 11.7349C28.6322 11.8307 28.6418 11.9347 28.6917 12.024C28.7415 12.1132 28.8277 12.1805 28.9311 12.211C32.1293 13.1548 33.5558 14.5625 33.5558 16.7777C33.5558 18.7479 31.6154 20.277 30.4598 21.0138C30.4051 21.0486 30.3603 21.0952 30.3294 21.1497C30.2984 21.2041 30.2823 21.2646 30.2822 21.3261V24.2243C29.2996 23.879 28.4218 23.3185 27.724 22.5906C27.6766 22.5418 27.6165 22.5051 27.5495 22.484C27.4824 22.4629 27.4106 22.4581 27.341 22.4701C27.1077 22.5118 26.8696 22.5709 26.6281 22.6308C26.2108 22.7347 25.7803 22.8423 25.3719 22.8423C23.2703 22.8423 21.7989 22.4238 20.2947 21.3997C20.2072 21.3401 20.0978 21.3151 19.9904 21.3302C19.883 21.3454 19.7866 21.3994 19.7222 21.4804C19.6579 21.5614 19.6309 21.6628 19.6472 21.7623C19.6636 21.8617 19.7219 21.9511 19.8094 22.0107C21.4682 23.1402 23.0796 23.6004 25.3719 23.6004C25.8883 23.6004 26.3728 23.4798 26.8409 23.3631C26.9866 23.326 27.1315 23.2896 27.2747 23.2585C28.8042 24.7549 30.5343 25.0953 30.6096 25.109C30.669 25.1204 30.7305 25.1193 30.7894 25.1058C30.8483 25.0923 30.9032 25.0667 30.95 25.0309C30.9971 24.9954 31.0351 24.9507 31.0611 24.9C31.0872 24.8492 31.1007 24.7937 31.1006 24.7375V21.524C33.2137 20.1284 34.3741 18.4485 34.3741 16.7777C34.3741 14.2146 32.7235 12.5339 29.179 11.4885Z" fill="#444444"/>
<path d="M27.0086 11.0925C27.0086 5.2583 21.2652 0.858398 13.6501 0.858398C5.99661 0.858398 0.00195312 5.35458 0.00195312 11.094C0.00195312 14.5349 2.62978 17.0002 4.91225 18.4921V23.5227C4.91267 23.5859 4.93005 23.6479 4.96282 23.7033C4.99558 23.7587 5.04271 23.8056 5.09995 23.8399C5.15718 23.8742 5.22273 23.8948 5.29069 23.8997C5.35864 23.9047 5.42686 23.894 5.48921 23.8684C5.60869 23.8191 8.40183 22.6434 10.7915 20.2228C11.8268 20.401 12.9979 20.5723 14.0601 20.5723C21.8045 20.5723 27.0086 16.7622 27.0086 11.0925ZM14.0593 19.8142C12.9872 19.8142 11.7687 19.6239 10.7179 19.4382C10.6482 19.4264 10.5765 19.4312 10.5094 19.4523C10.4424 19.4734 10.3823 19.51 10.3349 19.5587C8.65717 21.3114 6.68568 22.425 5.73063 22.9049V18.2943C5.7306 18.2328 5.71442 18.1722 5.68348 18.1178C5.65254 18.0634 5.60778 18.0167 5.55304 17.9819C3.39415 16.606 0.820336 14.2954 0.820336 11.094C0.820336 5.7791 6.45572 1.61648 13.6501 1.61648C20.7995 1.61648 26.1902 5.69041 26.1902 11.0925C26.1902 16.3096 21.3151 19.8142 14.0593 19.8142Z" fill="#444444"/>
<path d="M13.5051 9.57617C12.6024 9.57617 11.8683 10.2562 11.8683 11.0923C11.8683 11.9285 12.6024 12.6085 13.5051 12.6085C14.4078 12.6085 15.1419 11.9285 15.1419 11.0923C15.1419 10.2562 14.4078 9.57617 13.5051 9.57617ZM13.5051 11.8504C13.2944 11.8417 13.0954 11.758 12.9496 11.6168C12.8039 11.4756 12.7225 11.2877 12.7225 11.0923C12.7225 10.8969 12.8039 10.7091 12.9496 10.5679C13.0954 10.4267 13.2944 10.343 13.5051 10.3343C13.7158 10.343 13.9148 10.4267 14.0605 10.5679C14.2063 10.7091 14.2877 10.8969 14.2877 11.0923C14.2877 11.2877 14.2063 11.4756 14.0605 11.6168C13.9148 11.758 13.7158 11.8417 13.5051 11.8504ZM19.2338 9.57617C18.3311 9.57617 17.597 10.2562 17.597 11.0923C17.597 11.9285 18.3311 12.6085 19.2338 12.6085C20.1364 12.6085 20.8705 11.9285 20.8705 11.0923C20.8705 10.2562 20.1364 9.57617 19.2338 9.57617ZM19.2338 11.8504C19.0231 11.8417 18.8241 11.758 18.6783 11.6168C18.5325 11.4756 18.4512 11.2877 18.4512 11.0923C18.4512 10.8969 18.5325 10.7091 18.6783 10.5679C18.8241 10.4267 19.0231 10.343 19.2338 10.3343C19.4445 10.343 19.6434 10.4267 19.7892 10.5679C19.935 10.7091 20.0164 10.8969 20.0164 11.0923C20.0164 11.2877 19.935 11.4756 19.7892 11.6168C19.6434 11.758 19.4445 11.8417 19.2338 11.8504ZM7.77641 9.64819C6.87374 9.64819 6.13965 10.3282 6.13965 11.1644C6.13965 12.0005 6.87374 12.6805 7.77641 12.6805C8.67909 12.6805 9.41318 12.0005 9.41318 11.1644C9.41318 10.3282 8.67909 9.64819 7.77641 9.64819ZM7.77641 11.9224C7.5657 11.9137 7.36674 11.83 7.22096 11.6888C7.07518 11.5476 6.99382 11.3597 6.99382 11.1644C6.99382 10.969 7.07518 10.7811 7.22096 10.6399C7.36674 10.4987 7.5657 10.415 7.77641 10.4063C7.98713 10.415 8.18609 10.4987 8.33187 10.6399C8.47765 10.7811 8.55901 10.969 8.55901 11.1644C8.55901 11.3597 8.47765 11.5476 8.33187 11.6888C8.18609 11.83 7.98713 11.9137 7.77641 11.9224Z" fill="#444444"/>
</g>
<defs>
<clipPath id="clip0_1_1051">
<rect width="34.3764" height="24.2586" fill="white" transform="translate(0 0.858398)"/>
</clipPath>
</defs>
</svg>
