<svg width="31" height="25" viewBox="0 0 31 25" fill="none" xmlns="http://www.w3.org/2000/svg">
<path d="M27.8947 6.39566C27.9093 6.66577 27.9093 6.93588 27.9093 7.19139C27.9057 8.85367 27.6633 10.5068 27.1895 12.1001C26.1903 15.7725 23.9962 19.0073 20.9538 21.2938C17.9113 23.5804 14.1939 24.7883 10.3885 24.7268C7.03924 24.7305 3.76025 23.7661 0.946289 21.9497C1.43408 22.0098 1.92511 22.0395 2.41658 22.0388C5.18845 22.0414 7.88043 21.1104 10.0586 19.3961C8.77572 19.372 7.53234 18.9484 6.50169 18.1841C5.47105 17.4199 4.70448 16.3532 4.30882 15.1327C4.69091 15.1981 5.07757 15.2333 5.46519 15.2378C6.01813 15.2399 6.56861 15.1642 7.10047 15.013C5.78311 14.7517 4.58793 14.0653 3.6985 13.059C2.80907 12.0527 2.27458 10.7823 2.17712 9.44281C2.15243 9.28886 2.14265 9.13288 2.14792 8.97705V8.90259C3.00337 9.37849 3.96102 9.64094 4.93957 9.66766C4.09667 9.10638 3.40582 8.34518 2.92865 7.45198C2.45148 6.55878 2.20282 5.56135 2.20487 4.54868C2.20391 3.4581 2.48884 2.38632 3.03126 1.4402C4.57755 3.34568 6.50784 4.90411 8.69645 6.01401C10.8851 7.12391 13.2829 7.76039 15.7338 7.882C15.4246 6.56126 15.56 5.17539 16.119 3.93946C16.678 2.70353 17.6293 1.68666 18.8253 1.04665C20.0212 0.406644 21.395 0.179291 22.7334 0.399874C24.0718 0.620457 25.3 1.27664 26.2273 2.26659C27.6098 1.99393 28.9353 1.48626 30.1461 0.765645C30.1981 1.81095 30.0237 2.85514 29.6349 3.82683C29.2461 4.79851 28.652 5.67476 27.8933 6.39566H27.8947Z" fill="#777777"/>
</svg>
