<svg width="18" height="25" viewBox="0 0 18 25" fill="none" xmlns="http://www.w3.org/2000/svg">
<g clip-path="url(#clip0_1_1067)">
<path d="M8.76073 0.721191C4.54856 0.721191 0.00195312 3.78302 0.00195312 8.72884C0.00195312 11.1697 1.06415 13.2233 3.10415 14.7797C3.12534 14.804 3.14998 14.8255 3.17741 14.8438C4.69109 16.3448 4.76753 16.6302 4.77788 17.2905C4.78265 17.5518 4.78027 17.629 4.77788 17.6712L4.77469 17.8233C4.76275 18.1524 4.74443 18.7035 5.49052 18.9117L11.9354 20.2082C11.9865 20.2184 12.0393 20.2193 12.0907 20.2109C12.1422 20.2025 12.1914 20.1849 12.2354 20.1591C12.2794 20.1333 12.3175 20.0998 12.3473 20.0606C12.3772 20.0214 12.3984 19.9771 12.4096 19.9304C12.4208 19.8837 12.4218 19.8355 12.4126 19.7884C12.4033 19.7414 12.3841 19.6964 12.3559 19.6562C12.3277 19.6159 12.2911 19.5811 12.2482 19.5538C12.2052 19.5265 12.1569 19.5072 12.1058 19.4969L5.69198 18.2077C5.56856 18.1735 5.55821 18.1706 5.56935 17.8452L5.57174 17.7061C5.57174 17.7061 5.5797 17.6494 5.57333 17.2796C5.55821 16.3558 5.33844 15.9095 3.73479 14.3247C3.7042 14.2902 3.66696 14.2611 3.6249 14.2388C1.74893 12.7807 0.798206 10.9273 0.798206 8.72884C0.798206 4.23218 4.93076 1.44916 8.76073 1.44916C12.6751 1.44916 16.7233 4.17249 16.7233 8.72884C16.7233 11.6247 15.1881 13.2211 13.922 14.2257C13.8779 14.2451 13.8382 14.2721 13.805 14.3051C12.183 15.9095 11.9633 16.3558 11.9481 17.2796V17.3545L11.9473 17.38C11.9449 17.4353 11.9362 17.4659 11.937 17.4776C11.9059 17.4733 11.8749 17.4689 11.8438 17.4645L8.50354 16.746C8.45262 16.735 8.39984 16.7333 8.34821 16.741C8.29658 16.7487 8.24712 16.7657 8.20264 16.7908C8.15817 16.816 8.11955 16.849 8.08901 16.8878C8.05846 16.9266 8.03657 16.9706 8.0246 17.0171C8.01262 17.0637 8.0108 17.1119 8.01923 17.1591C8.02765 17.2063 8.04617 17.2516 8.07371 17.2922C8.10125 17.3329 8.13728 17.3682 8.17975 17.3961C8.22221 17.424 8.27028 17.444 8.3212 17.455L11.6209 18.1626C11.6647 18.1771 12.0612 18.2951 12.3956 18.0803C12.5413 17.9864 12.7109 17.8022 12.7412 17.4499L12.7436 17.4157L12.7452 17.3436L12.7444 17.3247L12.7452 17.2912C12.7555 16.6346 12.8304 16.3492 14.3417 14.8481C14.3488 14.843 14.3568 14.8379 14.3632 14.8321C16.4868 13.2007 17.5195 11.2039 17.5195 8.72884C17.5195 3.71678 13.0661 0.721191 8.76073 0.721191ZM11.9457 22.1962C12.0361 22.1964 12.1238 22.1683 12.1943 22.1167C12.2648 22.0651 12.3139 21.993 12.3335 21.9123C12.3452 21.8657 12.3466 21.8175 12.3378 21.7703C12.3291 21.7232 12.3102 21.6781 12.2823 21.6377C12.2544 21.5973 12.218 21.5622 12.1753 21.5347C12.1326 21.5071 12.0844 21.4875 12.0333 21.477L5.66331 20.1565C5.56138 20.1376 5.45542 20.156 5.3681 20.2076C5.28077 20.2592 5.21901 20.34 5.19602 20.4328C5.17303 20.5255 5.19064 20.6228 5.24508 20.7038C5.29952 20.7848 5.38647 20.8431 5.48734 20.8663L11.8574 22.1868C11.8863 22.1931 11.916 22.1963 11.9457 22.1962ZM6.06064 22.2356C6.00888 22.223 5.95488 22.2202 5.90189 22.2272C5.8489 22.2342 5.798 22.2509 5.75223 22.2763C5.70646 22.3017 5.66677 22.3353 5.63552 22.3751C5.60428 22.4148 5.58213 22.4599 5.5704 22.5077C5.55866 22.5554 5.55759 22.6049 5.56723 22.653C5.57688 22.7012 5.59705 22.747 5.62654 22.7879C5.65603 22.8288 5.69423 22.8638 5.73885 22.8908C5.78348 22.9179 5.83362 22.9364 5.88626 22.9453L11.0619 24.0067C11.1137 24.0192 11.1677 24.0221 11.2207 24.0151C11.2736 24.0081 11.3245 23.9914 11.3703 23.966C11.4161 23.9405 11.4558 23.907 11.487 23.8672C11.5183 23.8275 11.5404 23.7824 11.5521 23.7346C11.5639 23.6868 11.565 23.6374 11.5553 23.5892C11.5457 23.5411 11.5255 23.4952 11.496 23.4544C11.4665 23.4135 11.4283 23.3785 11.3837 23.3514C11.3391 23.3244 11.2889 23.3059 11.2363 23.2969L6.06064 22.2356Z" fill="#444444"/>
</g>
<defs>
<clipPath id="clip0_1_1067">
<rect width="17.5218" height="23.295" fill="white" transform="translate(0 0.721191)"/>
</clipPath>
</defs>
</svg>
