<svg width="33" height="24" viewBox="0 0 33 24" fill="none" xmlns="http://www.w3.org/2000/svg">
<g clip-path="url(#clip0_1_839)">
<path d="M31.77 7.5C31.6706 7.5 31.5752 7.53951 31.5049 7.60983C31.4345 7.68016 31.395 7.77554 31.395 7.875V22.875C31.395 22.9745 31.3555 23.0698 31.2852 23.1402C31.2149 23.2105 31.1195 23.25 31.02 23.25H1.77002C1.67056 23.25 1.57518 23.2105 1.50485 23.1402C1.43453 23.0698 1.39502 22.9745 1.39502 22.875V7.875C1.39502 7.77554 1.35551 7.68016 1.28518 7.60983C1.21486 7.53951 1.11948 7.5 1.02002 7.5C0.920563 7.5 0.825181 7.53951 0.754854 7.60983C0.684528 7.68016 0.64502 7.77554 0.64502 7.875L0.64502 22.875C0.64502 23.4953 1.14977 24 1.77002 24H31.02C31.6403 24 32.145 23.4953 32.145 22.875V7.875C32.145 7.77554 32.1055 7.68016 32.0352 7.60983C31.9649 7.53951 31.8695 7.5 31.77 7.5ZM31.02 0H1.77002C1.14977 0 0.64502 0.50475 0.64502 1.125V5.625C0.64502 5.72446 0.684528 5.81984 0.754854 5.89016C0.825181 5.96049 0.920563 6 1.02002 6H31.77C31.8695 6 31.9649 5.96049 32.0352 5.89016C32.1055 5.81984 32.145 5.72446 32.145 5.625V1.125C32.145 0.50475 31.6403 0 31.02 0ZM31.395 5.25H1.39502V1.125C1.39502 1.02554 1.43453 0.930161 1.50485 0.859835C1.57518 0.789509 1.67056 0.75 1.77002 0.75H31.02C31.1195 0.75 31.2149 0.789509 31.2852 0.859835C31.3555 0.930161 31.395 1.02554 31.395 1.125V5.25Z" fill="#144750"/>
<path d="M13.7695 21C13.869 21 13.9644 20.9605 14.0347 20.8902C14.105 20.8198 14.1445 20.7245 14.1445 20.625V8.625C14.1445 8.52554 14.105 8.43016 14.0347 8.35983C13.9644 8.28951 13.869 8.25 13.7695 8.25H4.01953C3.92008 8.25 3.82469 8.28951 3.75437 8.35983C3.68404 8.43016 3.64453 8.52554 3.64453 8.625V20.625C3.64453 20.7245 3.68404 20.8198 3.75437 20.8902C3.82469 20.9605 3.92008 21 4.01953 21H13.7695ZM4.39453 9H13.3945V20.25H4.39453V9ZM17.5195 11.25H28.7695C28.869 11.25 28.9644 11.2105 29.0347 11.1402C29.105 11.0698 29.1445 10.9745 29.1445 10.875C29.1445 10.7755 29.105 10.6802 29.0347 10.6098C28.9644 10.5395 28.869 10.5 28.7695 10.5H17.5195C17.4201 10.5 17.3247 10.5395 17.2544 10.6098C17.184 10.6802 17.1445 10.7755 17.1445 10.875C17.1445 10.9745 17.184 11.0698 17.2544 11.1402C17.3247 11.2105 17.4201 11.25 17.5195 11.25ZM17.5195 15H28.7695C28.869 15 28.9644 14.9605 29.0347 14.8902C29.105 14.8198 29.1445 14.7245 29.1445 14.625C29.1445 14.5255 29.105 14.4302 29.0347 14.3598C28.9644 14.2895 28.869 14.25 28.7695 14.25H17.5195C17.4201 14.25 17.3247 14.2895 17.2544 14.3598C17.184 14.4302 17.1445 14.5255 17.1445 14.625C17.1445 14.7245 17.184 14.8198 17.2544 14.8902C17.3247 14.9605 17.4201 15 17.5195 15ZM17.5195 18.75H28.7695C28.869 18.75 28.9644 18.7105 29.0347 18.6402C29.105 18.5698 29.1445 18.4745 29.1445 18.375C29.1445 18.2755 29.105 18.1802 29.0347 18.1098C28.9644 18.0395 28.869 18 28.7695 18H17.5195C17.4201 18 17.3247 18.0395 17.2544 18.1098C17.184 18.1802 17.1445 18.2755 17.1445 18.375C17.1445 18.4745 17.184 18.5698 17.2544 18.6402C17.3247 18.7105 17.4201 18.75 17.5195 18.75Z" fill="#144750"/>
<path d="M3.64453 3.75C4.05874 3.75 4.39453 3.41421 4.39453 3C4.39453 2.58579 4.05874 2.25 3.64453 2.25C3.23032 2.25 2.89453 2.58579 2.89453 3C2.89453 3.41421 3.23032 3.75 3.64453 3.75Z" fill="#144750"/>
<path d="M6.64453 3.75C7.05874 3.75 7.39453 3.41421 7.39453 3C7.39453 2.58579 7.05874 2.25 6.64453 2.25C6.23032 2.25 5.89453 2.58579 5.89453 3C5.89453 3.41421 6.23032 3.75 6.64453 3.75Z" fill="#144750"/>
<path d="M9.64453 3.75C10.0587 3.75 10.3945 3.41421 10.3945 3C10.3945 2.58579 10.0587 2.25 9.64453 2.25C9.23032 2.25 8.89453 2.58579 8.89453 3C8.89453 3.41421 9.23032 3.75 9.64453 3.75Z" fill="#144750"/>
</g>
<defs>
<clipPath id="clip0_1_839">
<rect width="31.504" height="24" fill="white" transform="translate(0.64502)"/>
</clipPath>
</defs>
</svg>
