<svg width="375" height="388" viewBox="0 0 375 388" fill="none" xmlns="http://www.w3.org/2000/svg">
<path d="M-12.9998 23.7678C-0.51105 15.6705 37.8627 0.697742 72.0126 0.971476C127.016 1.41237 140.995 23.7678 184.506 23.7678C231.102 22.886 247.292 0.97149 300.437 0.971465C340.49 0.971446 379.616 19.6293 384.94 23.7678C390.264 27.9064 390.442 349.364 384.94 356.287C379.439 363.21 329.551 380.785 296.084 380.785C243.663 380.785 231.481 361.939 193 361.939C154.519 361.939 130.5 387.708 72.0126 387.708C29.5142 387.708 -5.20035 368.995 -9.49982 361.939C-13.7993 354.882 -12.9999 30.4755 -12.9998 23.7678Z" fill="#B1D3DD"/>
</svg>
