<svg width="115" height="32" viewBox="0 0 115 32" fill="none" xmlns="http://www.w3.org/2000/svg">
<g filter="url(#filter0_i_1_1623)">
<path d="M46.5309 8.07062V1.50204C45.5563 0.823997 44.2849 0.442596 42.5898 0.442596C37.9282 0.442596 36.0212 2.68862 36.0212 7.64684V21.2925C36.0212 23.03 35.4703 24.0047 33.86 24.0047C32.2496 24.0047 31.6139 23.03 31.6139 21.2925V0.908752H23.4774V21.2925C23.4774 23.03 22.9265 24.0047 21.3161 24.0047C19.7057 24.0047 19.0701 23.03 19.0701 21.2925V11.0795C19.0701 4.68039 16.3579 0.442596 9.61979 0.442596C4.74633 0.442596 0.254267 3.74807 0.254267 9.2572C0.254267 12.1813 1.61036 15.1054 3.81401 16.8428L9.57741 12.4779C8.60272 11.7151 7.96705 10.6133 7.96705 9.46909C7.96705 8.66391 8.60272 8.07062 9.4079 8.07062C10.425 8.07062 10.9335 9.17244 10.9335 10.4014V21.8858C10.9335 27.6492 14.0271 31.4632 20.1719 31.4632C23.4774 31.4632 26.1048 30.1071 27.5456 28.3273C28.9865 30.1071 31.6139 31.4632 34.9194 31.4632C41.0642 31.4632 44.1578 27.6492 44.1578 21.8858V8.79104C44.1578 8.02824 44.4121 7.68922 45.0901 7.68922C45.7258 7.68922 46.1495 7.81635 46.5309 8.07062ZM55.3618 12.8593C50.234 12.8593 46.081 17.0547 46.081 22.1825C46.081 27.2254 50.234 31.4208 55.3618 31.4208C60.4895 31.4208 64.6425 27.2254 64.6425 22.1825C64.6425 17.0547 60.4895 12.8593 55.3618 12.8593ZM55.3618 25.3184C53.5395 25.3184 52.3529 23.92 52.3529 22.1825C52.3529 20.9535 52.9039 19.8093 53.9209 19.2584C54.0481 21.2502 55.7856 22.8181 57.8197 22.8181C58.074 22.8181 58.3282 22.7758 58.5825 22.7334C58.3282 24.2166 56.9721 25.3184 55.3618 25.3184ZM78.0667 12.8593C76.4988 12.8593 74.9308 13.7493 73.8289 15.6986V13.2831H66.5399V30.9971H73.8289V22.352C73.8289 21.3773 74.0832 20.4873 74.846 19.6398C75.6088 20.8264 76.6259 21.5044 78.321 21.5044C80.228 21.5044 82.0926 19.8517 82.0926 17.1395C82.0926 14.5121 80.3551 12.8593 78.0667 12.8593ZM102.189 25.1065C101.257 25.1065 100.579 24.6828 99.6043 23.6657C98.6296 22.6486 97.5278 22.013 96.0869 21.8434C100.282 21.2925 101.511 16.97 101.511 13.2831H94.3071C94.3071 15.7834 92.9934 19.0889 91.0864 19.0889V0.908752H83.7974V30.9971H91.0864V24.9794C92.4424 25.3184 93.7138 26.5474 95.0699 28.5815C96.2565 30.3614 97.7397 31.4208 99.7738 31.4208C101.215 31.4208 102.571 30.7852 103.376 30.0648V24.7251C102.995 24.9794 102.656 25.1065 102.189 25.1065ZM109.565 31.3785C112.955 31.3785 114.989 29.2172 114.989 25.6575C114.989 22.8181 113.082 20.8264 113.082 19.4279C113.082 18.6651 113.549 17.8599 114.608 17.648L110.413 12.8593C107.361 14.2154 105.963 16.2496 105.963 18.9617C105.963 21.6739 107.658 23.4962 107.658 24.4285C107.658 24.937 107.277 25.2337 106.726 25.2337C106.344 25.2337 105.793 25.1065 105.2 24.6404V30.5309C106.387 31.1242 108.209 31.3785 109.565 31.3785Z" fill="#B1D3DD"/>
</g>
<defs>
<filter id="filter0_i_1_1623" x="0.253906" y="0.442383" width="115.839" height="32.1241" filterUnits="userSpaceOnUse" color-interpolation-filters="sRGB">
<feFlood flood-opacity="0" result="BackgroundImageFix"/>
<feBlend mode="normal" in="SourceGraphic" in2="BackgroundImageFix" result="shape"/>
<feColorMatrix in="SourceAlpha" type="matrix" values="0 0 0 0 0 0 0 0 0 0 0 0 0 0 0 0 0 0 127 0" result="hardAlpha"/>
<feOffset dx="1.10359" dy="1.10359"/>
<feGaussianBlur stdDeviation="1.10359"/>
<feComposite in2="hardAlpha" operator="arithmetic" k2="-1" k3="1"/>
<feColorMatrix type="matrix" values="0 0 0 0 0.150816 0 0 0 0 0.273108 0 0 0 0 0.304167 0 0 0 0.65 0"/>
<feBlend mode="normal" in2="shape" result="effect1_innerShadow_1_1623"/>
</filter>
</defs>
</svg>
