<svg width="1440" height="632" viewBox="0 0 1440 632" fill="none" xmlns="http://www.w3.org/2000/svg">
<path d="M-25 85.6238C21.8969 55.2147 165.995 -1.01408 294.231 0.013903C500.778 1.66964 553.27 85.6238 716.658 85.6238C891.63 82.3122 952.425 0.0139563 1151.99 0.0138616C1302.39 0.0137901 1449.32 70.0817 1469.31 85.6238C1489.3 101.166 1489.97 488 1469.31 514C1448.65 540 1261.32 606 1135.65 606C938.8 606 865.451 554 672.145 554C527.645 554 431.687 632 294.231 632C134.645 632 7.29002 579.5 -8.85499 553C-25 526.5 -25 110.814 -25 85.6238Z" fill="#B1D3DD"/>
</svg>
